# xmcd
#
# Track frame offsets: 
#        182
#        16970
#        29165
#        41882
#        52867
#        64207
#        74662
#        97687
#        109150
#        130232
#        141765
#        156862
#        168792
#        181685
#
# Disc length: 2620 seconds
#
# Revision: 1
# Processed by: cddbd v1.5.2PL0 Copyright (c) Steve Scherf et al.
# Submitted via: ExactAudioCopy v1.0b3
#
DISCID=bd0a3a0e
DTITLE=Johnny Cash - American Recordings II: Unchained
DYEAR=1996
DGENRE=Country
TTITLE0=Rowboat
TTITLE1=Sea of Heartbreak
TTITLE2=Rusty Cage
TTITLE3=The One Rose
TTITLE4=Country Boy
TTITLE5=Memories Are Made of This
TTITLE6=Spiritual
TTITLE7=Kneeling Drunkard's Plea
TTITLE8=Southern Accents
TTITLE9=Mean Eyed Cat
TTITLE10=Meet Me in Heaven
TTITLE11=I Never Picked Cotton
TTITLE12=Unchained
TTITLE13=I've Been Everywhere
EXTD=
EXTT0=
EXTT1=
EXTT2=
EXTT3=
EXTT4=
EXTT5=
EXTT6=
EXTT7=
EXTT8=
EXTT9=
EXTT10=
EXTT11=
EXTT12=
EXTT13=
PLAYORDER=
